# xmcd
#
# Track frame offsets:
# 150
# 17337
# 36480
# 56597
# 73910
# 92767
# 107047
# 123030
# 141980
# 160060
# 182785
# 199995
# 220357
# 238332
#
# Disc length: 3353 seconds
#
#
# Revision: 0
# Processed by: cddbd v1.5.2PL0 Copyright (c) Steve Scherf et al.
# Submitted via: FreeRIP 2.96 
#
DISCID=d00d170e
DTITLE=RICK E RENNER - SUPER3-RICK E R.CD2
DYEAR=1900
DGENRE=
TTITLE0=RESSACA BRABA
TTITLE1=EU MEREÇO
TTITLE2=O AMOR E EU
TTITLE3=NÓIS TRUPICA, MAS NÃO CAI
TTITLE4=CARA DE PAU
TTITLE5=VOCE DECIDE
TTITLE6=QUEM CHOROU FUI EU
TTITLE7=PAIXÃO CALIENTE
TTITLE8=SEGUIR EM FRENTE
TTITLE9=MIL VEZES CANTAREI
TTITLE10=PAIXÃO DE PEÃO
TTITLE11=FILHA
TTITLE12=É VOCÊ
TTITLE13=NA VARA
EXTD=
EXTT0=
EXTT1=
EXTT2=
EXTT3=
EXTT4=
EXTT5=
EXTT6=
EXTT7=
EXTT8=
EXTT9=
EXTT10=
EXTT11=
EXTT12=
EXTT13=
PLAYORDER=
